# xmcd
#
# Track frame offsets:
#	150
#	6358
#	19633
#	29373
#	42805
#	52393
#	77040
#	90858
#	104673
#	118065
#	127283
#	140940
#
# Disc length: 2059 seconds
#
# Revision: 0
# Processed by: cddbd v1.4PL0 Copyright (c) Steve Scherf et al.
# Submitted via: dBpowerAMP V4.0
#
DISCID=a908090c
DTITLE=Seldom Scene - Act 3
DYEAR=1990
DGENRE=Bluegrass
TTITLE0=Chim-Chim-Cher-ee
TTITLE1=Little Georgia Rose
TTITLE2=Another Lonesome Day
TTITLE3=Willie Boy
TTITLE4=Faded Love
TTITLE5=Rider
TTITLE6=Muddy Water
TTITLE7=Mean Mother Blues
TTITLE8=Sing Me Back Home
TTITLE9=Hail To The Redskins
TTITLE10=Don't Bother With White Satin
TTITLE11=Heaven
EXTD=Rebel CD-1528
EXTT0=
EXTT1=
EXTT2=
EXTT3=
EXTT4=
EXTT5=
EXTT6=
EXTT7=
EXTT8=
EXTT9=
EXTT10=
EXTT11=
PLAYORDER=
